Coordinates
version=1
nRows=10
nColumns=63
inDegrees=yes

Units are S.I. units (second, meters, Newtons, ...)
If the header above contains a line with 'inDegrees', this indicates whether rotational values are in degrees (yes) or radians (no).

endheader
time	pelvis_tilt	pelvis_list	pelvis_rotation	pelvis_tx	pelvis_ty	pelvis_tz	hip_flexion_r	hip_adduction_r	hip_rotation_r	knee_angle_r	knee_angle_r_beta	ankle_angle_r	subtalar_angle_r	mtp_angle_r	hip_flexion_l	hip_adduction_l	hip_rotation_l	knee_angle_l	knee_angle_l_beta	ankle_angle_l	subtalar_angle_l	mtp_angle_l	L5_S1_Flex_Ext	L5_S1_Lat_Bending	L5_S1_axial_rotation	L4_L5_Flex_Ext	L4_L5_Lat_Bending	L4_L5_axial_rotation	L3_L4_Flex_Ext	L3_L4_Lat_Bending	L3_L4_axial_rotation	L2_L3_Flex_Ext	L2_L3_Lat_Bending	L2_L3_axial_rotation	L1_L2_Flex_Ext	L1_L2_Lat_Bending	L1_L2_axial_rotation	L1_T12_Flex_Ext	L1_T12_Lat_Bending	L1_T12_axial_rotation	Abs_r3	Abs_r2	Abs_r1	Abs_t1	Abs_t2	neck_flexion	neck_bending	neck_rotation	arm_flex_r	arm_add_r	arm_rot_r	elbow_flex_r	pro_sup_r	wrist_flex_r	wrist_dev_r	arm_flex_l	arm_add_l	arm_rot_l	elbow_flex_l	pro_sup_l	wrist_flex_l	wrist_dev_l
      0.00800000	    -53.75269627	     -1.47384002	     -0.96550148	     -0.26511728	      1.01663936	      0.01216053	    121.76366063	     -2.73183300	      2.04803477	     93.15786892	      1.62591154	     19.07320524	     -5.50041446	      0.00000000	     94.72993545	     -5.50057609	      3.90176737	     78.93655347	      1.37770276	      7.00116186	      2.63673538	      0.00000000	     -0.07695569	      0.35604840	      0.22235664	     -0.14291441	      0.47354438	      0.23625393	     -0.12643050	      0.86569609	      0.23625393	     -0.08795266	      0.86569609	      0.19456206	     -0.07146105	      0.72605390	      0.18066477	     -0.04397248	      0.55151898	      0.16676748	     -0.54968681	      4.02769075	      1.23668094	      0.00000000	      0.00000000	     -0.00000000	      0.00000000	      0.00000000	     80.85358994	    -11.40756574	     34.37622050	     21.22886094	     37.92265647	      0.00000000	      5.49187536	     73.64489680	    -13.77188124	     22.12654293	     31.46133552	     43.99405612	      0.00000000	      5.49187536
      0.01700000	    -53.87734559	     -1.39684583	     -0.99570208	     -0.26541707	      1.01673339	      0.01136050	    120.02243901	     -2.84327965	      1.93114497	     89.07940669	      1.55472894	     19.36494530	     -4.05004601	      0.00000000	     96.36617461	     -5.09725370	      4.40060896	     82.89679762	      1.44682206	      6.07951124	      1.19950537	      0.00000000	     -0.07801368	      0.35004608	      0.26110217	     -0.14487920	      0.46556129	      0.27742106	     -0.12816867	      0.85110204	      0.27742106	     -0.08916183	      0.85110204	      0.22846440	     -0.07244350	      0.71381397	      0.21214551	     -0.04457702	      0.54222138	      0.19582663	     -0.55724390	      3.95979127	      1.45217195	      0.00000000	      0.00000000	     -0.00000000	      0.00000000	      0.00000000	     80.85130768	    -11.72222379	     34.65673528	     21.97278153	     37.93616930	      0.00000000	      5.46676386	     74.04698810	    -13.44561586	     22.97364415	     30.91452834	     44.16166541	      0.00000000	      5.46676386
      0.02500000	    -53.94035255	     -1.24161196	     -0.69318598	     -0.26542971	      1.01664685	      0.01113683	    119.53385747	     -3.09596830	      2.08957601	     87.90841437	      1.53429127	     19.16548028	     -3.67406491	      0.00000000	     96.84404556	     -4.71896151	      4.37217483	     84.06700359	      1.46724600	      6.27774222	      1.02547480	      0.00000000	     -0.07177393	      0.32069436	      0.20545529	     -0.13329136	      0.42652350	      0.21829625	     -0.11791739	      0.77973626	      0.21829625	     -0.08203042	      0.77973626	      0.17977338	     -0.06664927	      0.65395993	      0.16693242	     -0.04101162	      0.49675556	      0.15409147	     -0.51267399	      3.62775871	      1.14268069	      0.00000000	      0.00000000	     -0.00000000	      0.00000000	      0.00000000	     80.71858748	    -11.82383790	     34.63690906	     22.27152732	     38.08306833	      0.00000000	      5.44838824	     74.04519251	    -13.48054056	     22.96892603	     31.16514537	     44.18000440	      0.00000000	      5.44838824
      0.03300000	    -53.94772823	     -1.21899447	     -0.73637993	     -0.26552505	      1.01677651	      0.01143644	    118.76603367	     -3.05145764	      1.91708789	     86.33964181	      1.50691102	     18.64801467	     -3.88680660	      0.00000000	     97.44913023	     -4.72443046	      4.55561165	     85.53255850	      1.49282476	      6.06563192	      1.02017631	      0.00000000	     -0.07714850	      0.30792814	      0.20914929	     -0.14327247	      0.40954443	      0.22222112	     -0.12674726	      0.74869648	      0.22222112	     -0.08817302	      0.74869648	      0.18300563	     -0.07164009	      0.62792707	      0.16993380	     -0.04408265	      0.47698069	      0.15686197	     -0.55106399	      3.48334472	      1.16322562	      0.00000000	      0.00000000	     -0.00000000	      0.00000000	      0.00000000	     80.80984182	    -11.69324253	     34.59893771	     21.94516863	     38.14521332	      0.00000000	      5.43675424	     74.26328294	    -13.38937141	     23.09016605	     30.76608073	     44.21999412	      0.00000000	      5.43675424
      0.04200000	    -53.99985095	     -1.30292000	     -0.68039117	     -0.26555956	      1.01685190	      0.01156762	    117.96148864	     -3.13533287	      1.60163442	     84.70411392	      1.47836568	     17.80326558	     -4.54913138	      0.00000000	     98.15321137	     -4.59986968	      4.85766402	     87.14035736	      1.52088615	      6.28439016	      0.97453245	      0.00000000	     -0.07683231	      0.30775166	      0.19854143	     -0.14268528	      0.40930971	      0.21095027	     -0.12622780	      0.74826739	      0.21095027	     -0.08781165	      0.74826739	      0.17372375	     -0.07134648	      0.62756719	      0.16131491	     -0.04390198	      0.47670732	      0.14890607	     -0.54880551	      3.48134834	      1.10422788	      0.00000000	      0.00000000	     -0.00000000	      0.00000000	      0.00000000	     80.77489408	    -11.77407319	     34.57281347	     22.13053356	     38.24357521	      0.00000000	      5.41071627	     74.35428275	    -13.40152388	     23.36179419	     30.78467610	     44.29943112	      0.00000000	      5.41071627
      0.05000000	    -54.04513206	     -1.22241923	     -0.35168686	     -0.26557455	      1.01707988	      0.01153250	    117.06568178	     -3.38929812	      1.60968596	     82.93931552	      1.44756414	     17.18893168	     -4.82564494	      0.00000000	     98.84173968	     -4.23400892	      4.96207774	     88.73573389	      1.54873072	      6.54092739	      1.09001467	      0.00000000	     -0.07682842	      0.28196393	      0.13366816	     -0.14267807	      0.37501202	      0.14202242	     -0.12622142	      0.68556709	      0.14202242	     -0.08780721	      0.68556709	      0.11695964	     -0.07134288	      0.57498084	      0.10860538	     -0.04389976	      0.43676212	      0.10025112	     -0.54877775	      3.18963233	      0.74342220	      0.00000000	      0.00000000	     -0.00000000	      0.00000000	      0.00000000	     80.75387479	    -11.73281546	     34.55116604	     22.02003189	     38.26683834	      0.00000000	      5.40592406	     74.47134846	    -13.39705006	     23.41394079	     30.73294152	     44.31931992	      0.00000000	      5.40592406
      0.05800000	    -54.10678656	     -1.34924316	     -0.11513948	     -0.26565833	      1.01740355	      0.01150154	    116.03393524	     -3.67013654	      1.26533750	     81.00309124	      1.41377065	     16.42612352	     -5.39964776	      0.00000000	     99.64617068	     -3.96917570	      5.28846137	     90.44818213	      1.57861858	      6.97524565	      1.45784876	      0.00000000	     -0.07743636	      0.28258700	      0.09681628	     -0.14380706	      0.37584071	      0.10286730	     -0.12722020	      0.68708203	      0.10286730	     -0.08850202	      0.68708203	      0.08471424	     -0.07190740	      0.57625141	      0.07866323	     -0.04424714	      0.43772726	      0.07261221	     -0.55312018	      3.19668067	      0.53846310	      0.00000000	      0.00000000	     -0.00000000	      0.00000000	      0.00000000	     80.78571862	    -11.79903171	     34.49575900	     21.92004091	     38.26737058	      0.00000000	      5.39894608	     74.57113062	    -13.31572741	     23.53418468	     30.72001773	     44.35317022	      0.00000000	      5.39894608
      0.06700000	    -54.16070471	     -1.18014332	      0.50286419	     -0.26568134	      1.01767541	      0.01115206	    115.09508764	     -4.19664885	      1.48198332	     79.27355235	      1.38358450	     15.82802474	     -5.19318355	      0.00000000	    100.40168564	     -3.39284563	      5.13053975	     92.09374370	      1.60733905	      7.37913099	      1.42981327	      0.00000000	     -0.07656815	      0.24105745	     -0.00796644	     -0.14219471	      0.32060640	     -0.00846434	     -0.12579381	      0.58610707	     -0.00846434	     -0.08750974	      0.58610707	     -0.00697064	     -0.07110118	      0.49156434	     -0.00647273	     -0.04375104	      0.37339798	     -0.00597483	     -0.54691862	      2.72689004	     -0.04430695	      0.00000000	      0.00000000	     -0.00000000	      0.00000000	      0.00000000	     80.67153457	    -11.92315918	     34.48243811	     22.04499420	     38.29814049	      0.00000000	      5.39318562	     74.65165106	    -13.27355935	     23.54424352	     30.88845220	     44.35876784	      0.00000000	      5.39318562
      0.07500000	    -54.24636244	     -1.54481273	      0.76578120	     -0.26589012	      1.01826558	      0.01101182	    113.79380055	     -4.46966913	      1.07263346	     77.02150339	      1.34427883	     15.52338227	     -5.88446124	      0.00000000	    101.30951951	     -3.09182330	      5.72438595	     93.75501999	      1.63633379	      7.99488048	      2.00859409	      0.00000000	     -0.07795647	      0.27377423	     -0.06055619	     -0.14477296	      0.36411972	     -0.06434095	     -0.12807469	      0.66565465	     -0.06434095	     -0.08909645	      0.66565465	     -0.05298667	     -0.07239038	      0.55828040	     -0.04920190	     -0.04454433	      0.42407627	     -0.04541714	     -0.55683528	      3.09698879	     -0.33679535	      0.00000000	      0.00000000	     -0.00000000	      0.00000000	      0.00000000	     80.83048138	    -11.85145954	     34.38915845	     21.73340869	     38.28968487	      0.00000000	      5.38220725	     74.77106114	    -13.20546311	     23.63525927	     30.77059753	     44.38452449	      0.00000000	      5.38220725
      0.08300000	    -54.29944797	     -1.94751137	      1.18819541	     -0.26598515	      1.01866887	      0.01054453	    112.55380570	     -4.99178503	      0.51689191	     74.97857858	      1.30862306	     14.80928037	     -6.64965163	      0.00000000	    102.22931197	     -2.64268408	      6.31908214	     95.47113456	      1.66628564	      8.90280503	      2.93008082	      0.00000000	     -0.07729032	      0.31158825	     -0.13004562	     -0.14353586	      0.41441237	     -0.13817347	     -0.12698027	      0.75759567	     -0.13817347	     -0.08833511	      0.75759567	     -0.11378992	     -0.07177179	      0.63539076	     -0.10566206	     -0.04416369	      0.48265020	     -0.09753421	     -0.55207705	      3.52474860	     -0.72327472	      0.00000000	      0.00000000	     -0.00000000	      0.00000000	      0.00000000	     80.95309111	    -11.90817808	     34.37127648	     21.49241381	     38.28587895	      0.00000000	      5.36842594	     74.79627682	    -13.11154031	     23.68474378	     30.78995923	     44.40278181	      0.00000000	      5.36842594
